<?xml version="1.0" standalone="no"?>
<!DOCTYPE svg PUBLIC "-//W3C//DTD SVG 20010904//EN"
 "http://www.w3.org/TR/2001/REC-SVG-20010904/DTD/svg10.dtd">
<svg version="1.0" xmlns="http://www.w3.org/2000/svg"
 width="1198.000000pt" height="254.000000pt" viewBox="0 0 1198.000000 254.000000"
 preserveAspectRatio="xMidYMid meet">

<g transform="translate(0.000000,254.000000) scale(0.100000,-0.100000)"
fill="#000000" stroke="none">
<path d="M9773 1965 c0 -22 2 -30 4 -17 2 12 2 30 0 40 -3 9 -5 -1 -4 -23z"/>
<path d="M9771 1840 c-1 -47 -3 -125 -4 -175 -2 -49 0 -97 4 -105 97 -197 105
-517 19 -739 -24 -62 -30 -91 -30 -158 0 -69 3 -82 18 -87 182 -55 230 -63
370 -65 82 -1 142 2 142 7 0 8 -208 29 -232 24 -11 -3 -20 76 -10 95 6 11 6
57 1 118 -4 55 -9 208 -10 340 -2 149 -5 215 -9 175 -5 -47 -7 -16 -9 115 -2
99 -3 209 -2 245 1 41 -1 60 -7 52 -7 -10 -11 -2 -16 26 -3 22 -12 45 -21 52
-13 11 -13 14 0 27 20 20 8 36 -22 30 -15 -3 -23 0 -20 7 5 13 -18 38 -27 29
-10 -10 -7 -25 4 -18 6 3 10 2 10 -3 0 -10 -23 -22 -41 -22 -5 0 -9 11 -9 25
0 14 -5 25 -11 25 -7 0 -9 -10 -5 -25 4 -15 2 -25 -4 -25 -6 0 -8 5 -4 12 5 7
2 9 -8 5 -9 -3 -21 0 -27 6 -8 8 -11 -5 -12 -48 l-2 -60 -8 80 c-13 122 -16
128 -18 35z m20 -223 c-10 -9 -11 -8 -5 6 3 10 9 15 12 12 3 -3 0 -11 -7 -18z
m236 -479 c-3 -8 -6 -5 -6 6 -1 11 2 17 5 13 3 -3 4 -12 1 -19z m0 -470 c-3
-8 -6 -5 -6 6 -1 11 2 17 5 13 3 -3 4 -12 1 -19z"/>
<path d="M8603 1833 c-9 -3 -10 -10 -3 -24 8 -15 6 -21 -10 -31 -13 -9 -20
-24 -20 -46 0 -19 -4 -31 -10 -27 -10 6 -15 -237 -15 -779 l0 -349 75 -30 c70
-29 86 -32 220 -35 107 -3 142 -1 134 7 -6 7 -56 14 -112 18 l-102 6 -2 126
-2 126 -6 -110 c-5 -96 -7 -82 -10 110 -2 145 -6 199 -10 160 -4 -38 -8 21
-10 165 -5 386 -6 413 -14 482 -5 40 -13 66 -19 65 -7 -1 -14 18 -17 44 -3 25
-13 54 -22 63 -10 10 -14 24 -11 34 6 14 8 13 14 -8 7 -23 7 -23 8 -3 1 18
-26 46 -41 42 -2 0 -9 -3 -15 -6z m124 -1005 c-3 -7 -5 -2 -5 12 0 14 2 19 5
13 2 -7 2 -19 0 -25z m0 -120 c-2 -13 -4 -3 -4 22 0 25 2 35 4 23 2 -13 2 -33
0 -45z"/>
<path d="M10013 1780 c0 -25 2 -35 4 -22 2 12 2 32 0 45 -2 12 -4 2 -4 -23z"/>
<path d="M3670 1773 l0 -24 30 21 c17 12 30 23 30 24 0 1 -13 3 -30 3 -25 0
-30 -4 -30 -24z"/>
<path d="M6660 1770 c0 -5 5 -10 11 -10 5 0 7 5 4 10 -3 6 -8 10 -11 10 -2 0
-4 -4 -4 -10z"/>
<path d="M8693 1740 c0 -25 2 -35 4 -22 2 12 2 32 0 45 -2 12 -4 2 -4 -23z"/>
<path d="M1632 1747 c-6 -12 -30 -71 -52 -132 -22 -60 -44 -119 -49 -130 -5
-11 -15 -36 -21 -55 -7 -19 -19 -48 -25 -65 -13 -29 -30 -75 -106 -285 -21
-58 -43 -113 -49 -122 -5 -10 -10 -23 -10 -29 0 -6 -6 -25 -14 -42 -24 -54
-138 -368 -134 -372 3 -3 117 21 231 49 33 7 62 18 67 22 4 5 19 41 33 79 53
148 89 235 98 235 5 0 9 -47 9 -103 0 -57 3 -145 6 -195 l7 -92 123 0 c111 0
143 7 115 24 -5 3 -10 117 -11 253 -2 137 -4 271 -4 298 -1 28 -3 117 -4 199
-2 147 -8 173 -22 99 -7 -33 -8 -29 -9 29 0 37 -4 69 -8 71 -5 3 -8 -38 -7
-91 1 -94 1 -94 -6 -27 -3 39 -7 62 -8 52 -1 -10 -7 -15 -12 -12 -6 3 -15 -4
-20 -17 -10 -22 -10 -21 -5 5 4 20 1 27 -10 27 -9 0 -15 -9 -15 -25 0 -14 -4
-25 -10 -25 -5 0 -10 11 -10 24 0 29 -25 42 -35 18 -9 -21 -12 -74 -21 -367
-5 -176 -9 -222 -17 -195 -11 41 -2 638 13 805 5 60 8 110 6 112 -1 2 -8 -7
-14 -20z m45 -384 c-3 -10 -5 -2 -5 17 0 19 2 27 5 18 2 -10 2 -26 0 -35z
m102 0 c0 -25 -1 -26 -9 -8 -12 27 -12 35 0 35 6 0 10 -12 9 -27z m-172 -280
c-2 -27 -3 -5 -3 47 0 52 1 74 3 48 2 -27 2 -69 0 -95z m0 -140 c-2 -16 -4 -5
-4 22 0 28 2 40 4 28 2 -13 2 -35 0 -50z"/>
<path d="M6661 1600 c-1 -80 -4 -343 -8 -585 l-6 -440 31 -32 30 -33 126 0
c135 0 170 14 59 24 -38 4 -86 10 -108 14 l-40 7 -5 90 c-6 109 -19 88 -22
-37 -2 -48 -7 -83 -11 -79 -5 5 -8 96 -7 203 1 239 -19 883 -29 958 -7 44 -9
26 -10 -90z"/>
<path d="M10033 1555 c0 -44 2 -61 4 -37 2 23 2 59 0 80 -2 20 -4 1 -4 -43z"/>
<path d="M393 1595 c-3 -9 -3 -18 -1 -21 3 -3 8 4 11 16 6 23 -1 27 -10 5z"/>
<path d="M2610 1599 c-74 -21 -150 -71 -150 -98 0 -5 -3 -18 -7 -28 -6 -17 -5
-17 15 1 26 22 27 19 8 -20 -19 -37 -42 -122 -35 -128 3 -3 51 -3 107 1 l101
6 7 31 c16 73 99 186 138 186 9 0 34 -16 56 -36 40 -36 80 -121 80 -169 0 -13
5 -27 10 -30 12 -8 12 -5 0 74 -24 143 -92 206 -233 216 -34 3 -78 0 -97 -6z"/>
<path d="M3820 1591 c-66 -22 -122 -56 -135 -82 -19 -36 -19 -61 -1 -36 18 23
29 22 16 -3 -7 -13 -10 -177 -10 -485 l1 -465 59 32 59 33 1 422 0 422 -37 4
-38 4 40 2 c34 1 44 7 68 42 38 55 116 92 161 76 70 -24 96 -56 122 -147 l12
-45 1 45 c0 25 -8 65 -17 89 -24 63 -86 94 -197 98 -44 1 -91 -1 -105 -6z"/>
<path d="M4556 1582 c-70 -24 -148 -102 -102 -102 11 0 11 -8 -2 -45 -8 -25
-13 -48 -10 -50 3 -3 19 0 36 6 22 7 40 26 60 63 31 54 91 102 140 112 46 9
113 -14 147 -52 16 -18 38 -57 47 -86 l18 -53 -4 58 c-9 114 -62 157 -201 163
-57 2 -94 -2 -129 -14z"/>
<path d="M5835 1587 c-55 -22 -92 -46 -119 -77 -40 -48 -22 -53 25 -7 24 21
59 46 78 54 48 21 166 20 214 0 93 -40 160 -155 182 -314 7 -54 13 -90 14 -80
1 9 6 17 11 17 31 0 -5 210 -48 279 -33 55 -88 102 -139 121 -61 23 -169 26
-218 7z"/>
<path d="M7855 1576 c-51 -23 -85 -50 -85 -67 0 -5 19 5 43 22 90 63 167 43
212 -54 14 -28 25 -66 25 -83 0 -27 4 -32 31 -38 17 -3 49 -6 70 -6 32 0 37 3
34 20 -2 11 0 20 6 20 5 0 9 -6 10 -12 0 -7 5 -2 10 12 7 16 6 40 -1 72 -24
100 -85 137 -220 138 -68 0 -95 -5 -135 -24z"/>
<path d="M9211 1590 c-62 -13 -138 -59 -164 -100 l-21 -35 39 39 c47 45 79 60
105 46 38 -21 87 -91 108 -157 26 -82 30 -107 31 -200 l1 -72 48 1 c26 1 73
-1 104 -5 l57 -7 12 40 c7 21 16 37 21 34 17 -11 20 28 10 116 -18 148 -76
248 -166 285 -44 18 -133 25 -185 15z"/>
<path d="M10984 1571 c-67 -34 -109 -71 -81 -71 17 0 53 -67 63 -118 4 -18 11
-35 17 -39 5 -3 84 -9 174 -14 91 -5 174 -11 184 -14 16 -5 19 -1 19 29 0 46
-35 139 -67 177 -39 46 -98 72 -178 76 -63 4 -76 2 -131 -26z"/>
<path d="M723 1565 c-8 -22 5 -31 20 -15 10 10 9 11 -2 5 -11 -6 -13 -4 -8 8
3 10 4 17 1 17 -2 0 -7 -7 -11 -15z"/>
<path d="M7140 1561 c-58 -18 -110 -53 -126 -84 l-16 -32 33 31 c62 58 93 68
207 67 88 -1 101 1 91 13 -13 15 -143 19 -189 5z"/>
<path d="M587 1552 c20 -13 35 -64 23 -76 -8 -8 -10 -7 -5 5 3 9 -1 21 -9 28
-13 11 -14 9 -7 -16 5 -15 14 -41 20 -56 6 -16 9 -40 6 -55 -4 -22 -4 -23 4
-7 8 18 9 17 16 -10 4 -16 12 -35 17 -42 6 -7 8 -18 5 -25 -3 -8 -9 -1 -16 16
-6 16 -14 26 -17 23 -10 -9 20 -62 35 -62 18 0 26 -21 12 -30 -6 -3 -11 -1
-11 6 0 7 -2 10 -5 7 -3 -2 11 -49 31 -104 42 -117 78 -227 88 -269 7 -29 7
-29 -8 -10 -14 18 -15 18 -16 3 0 -10 -4 -18 -10 -18 -5 0 -10 8 -11 18 0 13
-2 12 -9 -5 -8 -18 -17 -23 -49 -23 -41 0 -140 -44 -142 -64 -1 -6 -5 5 -9 24
-4 21 -8 -30 -9 -129 l-1 -164 48 7 c26 3 102 18 170 33 l122 27 0 59 c0 40 4
57 11 55 11 -4 72 -148 63 -148 -3 0 0 -9 6 -20 10 -19 20 -20 108 -19 81 2
98 5 99 18 0 9 13 48 28 86 15 39 37 100 49 137 13 37 26 71 29 75 4 3 7 15 7
25 0 10 4 18 9 18 5 0 12 18 16 40 4 22 11 43 16 46 6 3 7 14 4 24 -3 11 0 20
10 23 9 4 12 13 8 23 -4 10 0 20 10 25 9 6 13 17 10 29 -3 11 0 20 6 20 6 0
11 6 11 13 0 7 9 32 20 55 11 22 20 48 20 56 0 8 4 17 9 20 5 3 12 22 15 41 4
20 16 57 27 83 13 29 16 48 10 50 -6 2 -11 13 -11 23 0 14 -4 18 -12 12 -33
-20 -37 -8 -7 23 18 19 28 34 21 34 -7 0 -12 -5 -12 -11 0 -6 -7 -8 -17 -5
-10 4 -15 4 -11 1 9 -9 -28 -45 -46 -45 -8 0 -13 7 -12 16 0 9 -7 18 -16 19
-13 2 -19 -6 -24 -31 -3 -19 -10 -31 -15 -28 -9 5 -11 0 -13 -28 -1 -7 -4 -15
-8 -18 -7 -6 -87 -197 -153 -366 -71 -185 -74 -186 -118 -73 -29 73 -92 225
-169 409 -22 52 -49 114 -61 138 -20 40 -22 42 -29 21 -8 -22 -9 -22 -23 -3
-8 10 -15 14 -15 8 0 -19 27 -37 35 -23 6 8 11 7 17 -5 6 -10 7 -20 4 -23 -3
-4 -6 -1 -6 5 0 7 -4 12 -10 12 -5 0 -10 -9 -10 -19 0 -24 -16 -36 -26 -20 -4
8 -3 9 4 5 7 -4 12 -1 12 8 0 9 -11 18 -25 22 -20 5 -23 9 -14 20 9 12 5 14
-25 14 -30 0 -37 4 -42 25 -3 14 -13 25 -23 25 -11 0 -12 -3 -4 -8z m123 -382
c0 -5 -5 -10 -11 -10 -5 0 -7 5 -4 10 3 6 8 10 11 10 2 0 4 -4 4 -10z"/>
<path d="M383 1516 c-18 -6 -33 -16 -33 -23 0 -7 -4 -13 -10 -13 -5 0 -10 9
-10 20 0 11 -7 20 -15 20 -8 0 -15 -9 -15 -20 0 -30 -49 -28 -51 3 -3 43 -17
-88 -18 -166 -1 -43 -5 -76 -10 -73 -4 3 -8 -155 -7 -357 0 -199 -3 -370 -8
-379 -8 -17 2 -18 124 -18 79 0 129 4 125 9 -3 6 -10 209 -16 453 -6 244 -12
460 -12 481 -1 22 -7 37 -14 37 -19 0 -16 18 5 22 9 2 13 6 7 9 -5 3 -25 0
-42 -5z m14 -58 c-3 -8 -6 -5 -6 6 -1 11 2 17 5 13 3 -3 4 -12 1 -19z"/>
<path d="M1471 1484 c0 -11 3 -14 6 -6 3 7 2 16 -1 19 -3 4 -6 -2 -5 -13z"/>
<path d="M1450 1466 c0 -17 16 -30 23 -19 3 5 -1 14 -9 21 -12 10 -14 10 -14
-2z"/>
<path d="M7370 1420 c0 -5 9 -10 21 -10 11 0 17 5 14 10 -3 6 -13 10 -21 10
-8 0 -14 -4 -14 -10z"/>
<path d="M7420 1417 c0 -8 7 -14 15 -14 11 0 12 4 4 14 -6 7 -13 13 -15 13 -2
0 -4 -6 -4 -13z"/>
<path d="M2214 1396 c-10 -8 -16 -18 -11 -22 4 -4 7 -2 7 4 0 7 7 12 15 12 8
0 15 5 15 10 0 13 -3 13 -26 -4z"/>
<path d="M2357 1403 c-4 -3 -7 -13 -7 -22 1 -13 3 -13 11 2 11 19 8 33 -4 20z"/>
<path d="M7485 1401 c-28 -12 67 -17 170 -11 l80 5 -64 8 c-80 9 -160 8 -186
-2z"/>
<path d="M2297 1338 c-14 -29 -16 -30 -16 -10 -1 17 -7 22 -26 22 -16 0 -25
-6 -25 -15 0 -22 -21 -18 -27 5 -7 25 -22 26 -21 3 1 -10 -4 -45 -11 -77 -16
-84 -14 -233 5 -322 8 -42 13 -78 11 -80 -7 -7 -57 157 -57 186 0 18 -3 21 -9
11 -7 -11 -11 -10 -20 7 -6 11 -11 30 -11 42 0 26 -18 17 -31 -17 -5 -13 -13
-22 -18 -18 -5 3 -12 -3 -14 -12 -3 -13 -5 -12 -6 6 -1 18 -5 21 -18 15 -10
-4 -30 -8 -44 -8 -26 -1 -26 -3 -33 -90 -11 -165 -7 -466 6 -466 7 0 61 14
120 32 l108 31 0 109 c0 80 3 108 13 108 6 -1 33 -32 60 -70 123 -180 329
-263 571 -231 48 7 97 16 109 20 12 5 24 9 27 10 53 13 241 85 272 104 24 14
71 54 106 88 62 63 79 96 45 85 -10 -3 -44 -14 -76 -23 -51 -16 -65 -26 -110
-82 -29 -36 -59 -67 -67 -69 -8 -3 2 12 23 34 41 43 47 58 17 49 -19 -6 -19
-4 -8 19 6 14 9 28 7 29 -2 2 -27 22 -56 44 l-52 40 -49 -46 c-77 -72 -149
-104 -246 -109 -44 -2 -99 1 -122 7 -72 19 -157 82 -202 150 -46 69 -60 109
-69 192 l-6 57 39 4 c22 3 41 1 42 -4 2 -4 8 -5 14 -2 6 4 172 7 369 7 l359 0
-1 86 c-1 47 -4 73 -6 57 -6 -35 -28 -60 -45 -50 -7 5 -28 7 -46 5 -51 -4
-116 9 -103 22 7 7 15 6 27 -4 16 -12 17 -12 11 4 -4 10 -7 26 -7 35 0 12 -3
13 -12 4 -7 -7 -20 -12 -31 -12 -11 0 -15 -4 -11 -12 5 -8 2 -9 -12 -2 -10 5
-143 11 -294 14 -151 3 -281 9 -288 13 -8 6 -9 14 -2 27 5 10 10 25 9 32 0 7
-5 2 -10 -12 -8 -19 -12 -21 -19 -11 -6 11 -9 9 -13 -10 -2 -13 -2 0 0 29 2
28 3 52 1 52 -3 0 -12 -15 -21 -32z"/>
<path d="M2331 1344 c0 -11 3 -14 6 -6 3 7 2 16 -1 19 -3 4 -6 -2 -5 -13z"/>
<path d="M8731 1324 c0 -11 3 -14 6 -6 3 7 2 16 -1 19 -3 4 -6 -2 -5 -13z"/>
<path d="M8733 1205 c0 -44 2 -61 4 -37 2 23 2 59 0 80 -2 20 -4 1 -4 -43z"/>
<path d="M3559 1178 c-1 -50 -1 -51 -11 -23 -14 40 -13 39 -55 37 -21 -2 -40
3 -44 10 -13 21 -29 -38 -29 -108 0 -36 -4 -118 -10 -182 -5 -64 -11 -181 -12
-260 l-3 -142 123 0 c81 0 122 4 122 11 0 6 -9 13 -21 16 -15 4 -17 8 -8 14 9
5 12 49 11 176 -4 386 -18 572 -35 458 l-4 -30 -2 32 c-2 56 -21 48 -22 -9z"/>
<path d="M10337 1214 c-3 -3 -6 -108 -7 -234 l-1 -227 57 -52 c101 -92 238
-139 584 -197 165 -28 334 -4 437 62 29 19 56 34 59 34 6 0 44 38 69 70 11 14
-1 6 -26 -17 -116 -104 -210 -138 -374 -138 -219 1 -376 82 -488 253 -58 88
-84 161 -98 274 -14 113 -20 133 -29 93 -5 -27 -7 -26 -13 20 l-7 50 -63 3
c-34 1 -69 5 -78 7 -8 3 -18 2 -22 -1z"/>
<path d="M4352 1170 c-6 -115 -36 -151 -48 -57 -6 41 -9 47 -14 27 -4 -18 -13
-25 -30 -25 -15 0 -26 -7 -28 -17 -4 -23 -40 -11 -45 16 -2 11 -6 -24 -10 -79
-4 -55 -12 -138 -17 -185 -5 -47 -11 -142 -13 -211 l-4 -127 126 -1 c99 -2
123 1 114 10 -7 7 -32 16 -55 20 l-43 6 38 2 c21 0 40 7 42 13 2 7 1 155 -4
328 -4 173 -9 299 -9 280z"/>
<path d="M4235 1140 c-3 -5 -1 -10 4 -10 6 0 11 5 11 10 0 6 -2 10 -4 10 -3 0
-8 -4 -11 -10z"/>
<path d="M6212 1110 c0 -14 2 -19 5 -12 2 6 2 18 0 25 -3 6 -5 1 -5 -13z"/>
<path d="M8050 1120 c-76 -5 -157 -15 -185 -24 -59 -18 -115 -51 -115 -67 0
-5 12 -2 28 8 45 31 77 42 167 55 103 15 105 13 105 -82 l0 -65 63 -17 c34 -9
63 -15 64 -15 0 1 4 39 7 85 3 55 10 88 21 98 20 20 19 34 -2 32 -10 -1 -79
-5 -153 -8z"/>
<path d="M8732 1070 c0 -19 2 -27 5 -17 2 9 2 25 0 35 -3 9 -5 1 -5 -18z"/>
<path d="M5355 1018 c7 -119 71 -264 154 -351 59 -63 152 -123 222 -145 129
-40 293 -38 409 5 60 23 155 88 207 142 63 66 52 71 -18 9 -86 -76 -126 -102
-194 -129 -52 -20 -77 -23 -195 -24 -74 0 -144 4 -155 8 -19 8 -19 9 5 22 19
11 21 14 8 15 -10 0 -18 5 -18 10 0 6 -9 10 -21 10 -11 0 -17 5 -14 10 8 13
-6 13 -25 0 -13 -9 -13 -11 0 -20 8 -5 24 -10 35 -10 14 0 16 -3 8 -11 -8 -8
-19 -6 -42 5 -17 9 -33 16 -36 16 -13 0 -103 71 -146 115 -96 101 -130 169
-179 360 -8 34 -9 29 -5 -37z"/>
<path d="M2750 1070 c-190 -3 -340 -7 -335 -11 6 -3 55 -5 110 -4 516 3 678 6
674 10 -9 9 -110 10 -449 5z"/>
<path d="M11012 1063 c108 -2 288 -2 400 0 112 1 23 2 -197 2 -220 0 -311 -1
-203 -2z"/>
<path d="M7351 914 c-1 -72 2 -88 30 -142 45 -90 123 -153 294 -236 69 -34
165 -49 254 -41 73 6 190 39 202 57 3 5 26 -3 50 -17 41 -23 52 -25 189 -25
174 0 179 16 8 26 l-118 7 -18 50 -19 49 -34 -30 c-104 -91 -270 -120 -429
-76 -70 20 -136 62 -193 123 -53 56 -80 106 -97 179 -6 28 -16 52 -21 52 -5 0
-15 11 -21 25 -6 14 -17 25 -25 25 -7 0 -13 4 -13 10 0 5 -6 7 -14 4 -9 -4
-16 3 -19 18 -2 13 -5 -13 -6 -58z"/>
<path d="M4932 823 c-2 -52 -22 -58 -22 -7 0 21 -4 33 -10 29 -6 -4 -10 -72
-10 -171 l0 -164 121 0 c92 0 120 3 117 13 -3 6 -27 14 -54 18 l-49 5 40 5 40
4 3 95 c4 117 -2 143 -28 135 -10 -3 -35 3 -57 15 -50 27 -73 26 -75 -2 0 -13
-4 -3 -8 22 l-7 45 -1 -42z"/>
<path d="M4448 683 c-2 -72 1 -102 10 -112 12 -12 15 -12 23 0 18 28 3 209
-17 209 -9 0 -13 -26 -16 -97z m19 25 c-2 -13 -4 -3 -4 22 0 25 2 35 4 23 2
-13 2 -33 0 -45z"/>
<path d="M9624 626 c-157 -147 -419 -151 -591 -10 l-44 36 7 -44 c4 -23 8 -44
9 -46 2 -2 47 -17 102 -34 84 -26 114 -31 208 -31 122 0 181 15 250 64 55 39
119 98 113 105 -3 3 -28 -15 -54 -40z"/>
<path d="M5831 562 c-6 -2 -9 -8 -5 -13 7 -12 94 -12 94 0 0 9 -70 19 -89 13z"/>
<path d="M5936 555 c4 -8 11 -15 16 -15 6 0 5 6 -2 15 -7 8 -14 15 -16 15 -2
0 -1 -7 2 -15z"/>
</g>
</svg>
